# xmcd
#
# Track frame offsets:
# 150
# 26787
# 65550
# 92659
# 108450
# 121971
# 139782
# 156091
# 176905
# 188140
# 202127
# 217147
# 236775
# 246871
# 338531
#
# Disc length: 4653 seconds
#
#
# Revision: 3
# Processed by: cddbd v1.5.2PL0 Copyright (c) Steve Scherf et al.
# Submitted via: FreeRIP 2.931 
#
DISCID=e5122b0f
DTITLE=Jazz Forever - Jazz Forever-CD1
DYEAR=2004
DGENRE=Jazz
TTITLE0=Chick Corea-Spain
TTITLE1=Herbie Hancock-Mercy Street
TTITLE2=Cassandra Wilson-My One And Only Love
TTITLE3=Terry Callier-Love Can Do
TTITLE4=Fred Astaire-The Way U Look Tonight
TTITLE5=Ben Webster-Chelsea Bridge
TTITLE6=Anita O'Day-My Funny Valentine
TTITLE7=Charlie Mingus-Memories Of You
TTITLE8=Dinah Washington-What A Difference A Day Makes
TTITLE9=Chuck Mangione-Children Of Sanchez Finale
TTITLE10=Ella Fitzgerald-Sunshine Of Your Love
TTITLE11=Dave Crusin-Bossa Baroque
TTITLE12=Astrud Gilberto-Once I Loved
TTITLE13=John Coltrane-My Favourite Things
TTITLE14=Louis Armstrong-What A Wonderful World
EXTD=YEAR: 2004
EXTT0=
EXTT1=
EXTT2=
EXTT3=
EXTT4=
EXTT5=
EXTT6=
EXTT7=
EXTT8=
EXTT9=
EXTT10=
EXTT11=
EXTT12=
EXTT13=
EXTT14=
PLAYORDER=
